<?xml version="1.0" encoding="utf-8"?>
<!-- Generator: Adobe Illustrator 19.0.0, SVG Export Plug-In . SVG Version: 6.00 Build 0)  -->
<svg version="1.1" id="Lager_1" xmlns="http://www.w3.org/2000/svg" xmlns:xlink="http://www.w3.org/1999/xlink" x="0px" y="0px"
	 viewBox="0 0 22.2 14" style="enable-background:new 0 0 22.2 14;" xml:space="preserve">
<g id="XMLID_121_">
	<path id="XMLID_24_" d="M3.9,3.2c0,0,8.8,0.5,15.5,0"/>
	<g id="XMLID_19_">
		<path id="XMLID_23_" d="M3.9,5.7C9,6,14.2,6.1,19.4,5.7c3.2-0.2,3.2-5.2,0-5C14.2,1.1,9,1,3.9,0.7C0.7,0.5,0.7,5.5,3.9,5.7
			L3.9,5.7z"/>
	</g>
</g>
<g id="XMLID_122_">
	<path id="XMLID_17_" d="M3.1,11c0,0,7.8-3.8,16.3-4.8"/>
	<g id="XMLID_12_">
		<path id="XMLID_16_" d="M4.3,13.2c4.7-2.3,9.9-3.8,15.1-4.5c3.1-0.4,3.2-5.4,0-5C13.3,4.5,7.3,6.2,1.8,8.9
			C-1.1,10.3,1.4,14.6,4.3,13.2L4.3,13.2z"/>
	</g>
</g>
</svg>
