<?xml version="1.0" encoding="utf-8"?>
<!-- Generator: Adobe Illustrator 19.0.0, SVG Export Plug-In . SVG Version: 6.00 Build 0)  -->
<svg version="1.1" id="Lager_1" xmlns="http://www.w3.org/2000/svg" xmlns:xlink="http://www.w3.org/1999/xlink" x="0px" y="0px"
	 viewBox="0 0 21 17.8" style="enable-background:new 0 0 21 17.8;" xml:space="preserve">
<g id="XMLID_4_">
	<g id="XMLID_3_">
		<g id="XMLID_21_">
			<path id="XMLID_25_" d="M4.4,5.2c3.8,3,8,6,12.6,7.4c3.1,1,4.4-3.8,1.3-4.8c-2.5-0.8-4.8-2.2-6.9-3.7c-0.9-0.6-1.8-1.2-2.6-1.8
				C8.2,1.9,8.1,1.8,7.9,1.7C5.4-0.3,1.9,3.2,4.4,5.2L4.4,5.2z"/>
		</g>
	</g>
	<g id="XMLID_1_">
		<g id="XMLID_15_">
			<path id="XMLID_19_" d="M3.4,16.1c4.7,0,9.5,0,14.2,0c3.2,0,3.2-5,0-5c-4.7,0-9.5,0-14.2,0C0.2,11.1,0.2,16.1,3.4,16.1L3.4,16.1z
				"/>
		</g>
	</g>
</g>
</svg>
