<?xml version="1.0" encoding="utf-8"?>
<!-- Generator: Adobe Illustrator 19.0.0, SVG Export Plug-In . SVG Version: 6.00 Build 0)  -->
<svg version="1.1" id="Lager_1" xmlns="http://www.w3.org/2000/svg" xmlns:xlink="http://www.w3.org/1999/xlink" x="0px" y="0px"
	 viewBox="0 0 24.5 10.3" style="enable-background:new 0 0 24.5 10.3;" xml:space="preserve">
<g id="XMLID_206_">
	<g id="XMLID_103_">
		<path id="XMLID_107_" d="M3.2,9.5c1.4-0.6,2.9-1.2,4.3-1.8c0.7-0.3,5.3-1.6,5.5-2.3c-0.2,0.5-2.8-1-0.6,0.2c1,0.5,2,0.9,3,1.4
			c1.6,0.7,3.3,1.5,4.9,2.2c2.9,1.3,5.5-3,2.5-4.3c-1.8-0.8-3.5-1.6-5.3-2.4c-1.5-0.7-3.8-2.2-5.5-2.1c-1.6,0.1-3.5,1.4-5,2
			C5.4,3.2,3.6,3.9,1.9,4.6C-1.1,5.9,0.2,10.7,3.2,9.5L3.2,9.5z"/>
	</g>
</g>
</svg>
